<svg width="1064" height="1064" viewBox="0 0 1064 1064" fill="none" xmlns="http://www.w3.org/2000/svg">
<path d="M1064 0H-1.52588e-05V1064H1064V0Z" fill="#16151C"/>
<path d="M1064 0H-1.52588e-05V1064H1064V0Z" fill="url(#paint0_linear_86_133)" fill-opacity="0.2"/>
<path d="M698.237 699.362C696.651 588.053 607.555 512.17 517.835 524.472C504.359 526.32 490.702 530.143 477.115 536.191L262.258 631.838V636.076C262.258 687.664 276.871 737.826 303.871 779.617L306.201 783.224C348.582 848.822 417.548 885.786 489.258 883.001L542.712 880.924C569.277 879.893 594.166 871.782 615.969 858.168C665.456 827.267 699.212 767.794 698.237 699.362Z" stroke="white" stroke-width="40"/>
<path d="M584.137 870.658C590.195 872.329 596.367 873.728 602.637 874.842" stroke="white" stroke-width="40"/>
<path d="M696.352 181C630.393 181 576.137 235.854 576.137 304.5C576.137 373.146 630.393 428 696.352 428C748.319 428 792.963 394.031 809.635 345.948L812.473 337.764L820.383 334.235L871.815 311.291L823.832 288.148L815.289 284.027L813.073 274.805C800.066 220.639 752.465 181 696.352 181Z" stroke="white" stroke-width="40"/>
<path d="M437.551 573L389.133 594.557L439.161 706.923C451.067 733.664 482.396 745.69 509.136 733.784L437.551 573Z" fill="white"/>
<path d="M354.551 606L306.133 627.557L356.161 739.923C368.067 766.664 399.396 778.69 426.136 766.784L354.551 606Z" fill="white"/>
<path d="M602.637 874.842C614.324 876.917 626.354 878 638.637 878C751.579 878 843.137 786.442 843.137 673.5C843.137 560.558 751.579 469 638.637 469C581.607 469 530.029 492.345 492.938 530" stroke="white" stroke-width="40"/>
<path d="M270.818 707.74L187.742 774.218C181.11 779.525 183.695 790.161 192.024 791.831L331.318 819.761" stroke="white" stroke-width="40"/>
<defs>
<linearGradient id="paint0_linear_86_133" x1="532" y1="0" x2="532" y2="1064" gradientUnits="userSpaceOnUse">
<stop stop-color="#524C8E"/>
<stop offset="1" stop-opacity="0"/>
</linearGradient>
</defs>
</svg>
