<svg width="730" height="743" viewBox="0 0 730 743" fill="none" xmlns="http://www.w3.org/2000/svg">
<path d="M194.951 538.362C196.537 427.053 285.634 351.17 375.354 363.472C388.829 365.32 402.487 369.143 416.073 375.191L630.931 470.838V475.076C630.931 526.664 616.317 576.826 589.317 618.617L586.987 622.224C544.606 687.822 475.641 724.786 403.931 722.001L350.477 719.924C323.912 718.893 299.022 710.782 277.22 697.168C227.732 666.267 193.976 606.794 194.951 538.362Z" stroke="white" stroke-width="40"/>
<path d="M309.053 709.658C302.994 711.329 296.823 712.728 290.553 713.842" stroke="white" stroke-width="40"/>
<path d="M196.838 20C262.797 20.0002 317.053 74.8539 317.053 143.5C317.053 212.146 262.797 267 196.838 267C144.871 267 100.226 233.031 83.5547 184.948L80.7168 176.764L72.8066 173.235L21.374 150.291L69.3574 127.148L77.9004 123.027L80.1162 113.805C93.1236 59.6389 140.724 20 196.838 20Z" stroke="white" stroke-width="40"/>
<path d="M455.639 412L504.057 433.557L454.028 545.923C442.122 572.664 410.793 584.69 384.053 572.784L455.639 412Z" fill="white"/>
<path d="M538.639 445L587.057 466.557L537.028 578.923C525.122 605.664 493.793 617.69 467.053 605.784L538.639 445Z" fill="white"/>
<path d="M290.553 713.842C278.866 715.917 266.836 717 254.553 717C141.611 717 50.0527 625.442 50.0527 512.5C50.0527 399.558 141.611 308 254.553 308C311.583 308 363.161 331.345 400.251 369" stroke="white" stroke-width="40"/>
<path d="M622.371 546.74L705.447 613.218C712.079 618.525 709.494 629.161 701.165 630.831L561.871 658.761" stroke="white" stroke-width="40"/>
</svg>
