<svg width="1064" height="1064" viewBox="0 0 1064 1064" fill="none" xmlns="http://www.w3.org/2000/svg">
<path d="M698.237 699.362C696.651 588.053 607.555 512.17 517.835 524.472C504.359 526.32 490.702 530.143 477.115 536.191L262.258 631.838V636.076C262.258 687.664 276.871 737.826 303.871 779.617L306.201 783.224C348.582 848.822 417.548 885.786 489.258 883.001L542.712 880.925C569.277 879.893 594.166 871.782 615.969 858.168C665.456 827.267 699.212 767.794 698.237 699.362Z" stroke="white" stroke-width="40"/>
<path d="M584.135 870.658C590.193 872.329 596.365 873.728 602.635 874.842" stroke="white" stroke-width="40"/>
<path d="M696.351 181C630.392 181 576.136 235.854 576.136 304.5C576.136 373.146 630.392 428 696.351 428C748.318 428 792.962 394.031 809.634 345.948L812.472 337.764L820.382 334.235L871.814 311.291L823.831 288.148L815.288 284.027L813.072 274.805C800.065 220.639 752.464 181 696.351 181Z" stroke="white" stroke-width="40"/>
<path d="M437.551 573L389.133 594.557L439.161 706.923C451.067 733.664 482.396 745.69 509.136 733.784L437.551 573Z" fill="white"/>
<path d="M354.551 606L306.133 627.557L356.161 739.923C368.067 766.664 399.396 778.69 426.136 766.784L354.551 606Z" fill="white"/>
<path d="M602.636 874.842C614.323 876.917 626.353 878 638.636 878C751.578 878 843.136 786.442 843.136 673.5C843.136 560.558 751.578 469 638.636 469C581.606 469 530.028 492.345 492.937 530" stroke="white" stroke-width="40"/>
<path d="M270.818 707.74L187.742 774.218C181.11 779.525 183.695 790.161 192.024 791.831L331.318 819.761" stroke="white" stroke-width="40"/>
</svg>
