<svg width="730" height="743" viewBox="0 0 730 743" fill="none" xmlns="http://www.w3.org/2000/svg">
<path d="M534.271 538.362C532.685 427.053 443.588 351.17 353.868 363.472C340.392 365.32 326.735 369.143 313.148 375.191L98.291 470.838V475.076C98.291 526.664 112.904 576.826 139.904 618.617L142.234 622.224C184.615 687.822 253.581 724.786 325.291 722.001L378.745 719.924C405.31 718.893 430.199 710.782 452.002 697.168C501.489 666.267 535.246 606.794 534.271 538.362Z" stroke="white" stroke-width="40"/>
<path d="M420.169 709.658C426.228 711.329 432.399 712.728 438.669 713.842" stroke="white" stroke-width="40"/>
<path d="M532.384 20C466.425 20.0002 412.169 74.8539 412.169 143.5C412.169 212.146 466.425 267 532.384 267C584.351 267 628.996 233.031 645.667 184.948L648.505 176.764L656.415 173.235L707.848 150.291L659.864 127.148L651.321 123.027L649.105 113.805C636.098 59.6389 588.497 20 532.384 20Z" stroke="white" stroke-width="40"/>
<path d="M273.583 412L225.165 433.557L275.194 545.923C287.099 572.664 318.428 584.69 345.169 572.784L273.583 412Z" fill="white"/>
<path d="M190.583 445L142.165 466.557L192.194 578.923C204.099 605.664 235.428 617.69 262.169 605.784L190.583 445Z" fill="white"/>
<path d="M438.669 713.842C450.356 715.917 462.386 717 474.669 717C587.611 717 679.169 625.442 679.169 512.5C679.169 399.558 587.611 308 474.669 308C417.639 308 366.061 331.345 328.971 369" stroke="white" stroke-width="40"/>
<path d="M106.851 546.74L23.7743 613.218C17.1424 618.525 19.7282 629.161 28.0563 630.831L167.351 658.761" stroke="white" stroke-width="40"/>
</svg>
