<svg width="51" height="51" viewBox="0 0 51 51" fill="none" xmlns="http://www.w3.org/2000/svg">
<path d="M1.19398 6.96665C-0.397992 5.37293 -0.397994 2.789 1.19398 1.19529C2.78595 -0.398429 5.36705 -0.398429 6.95902 1.19529L49.476 43.7589C51.068 45.3526 51.068 47.9365 49.476 49.5302C47.884 51.1239 45.3029 51.1239 43.7109 49.5302L1.19398 6.96665Z" fill="white"/>
<path d="M44.041 1.46978C45.6329 -0.123934 48.2141 -0.123936 49.806 1.46978C51.398 3.0635 51.398 5.64742 49.806 7.24114L7.28905 49.8047C5.69708 51.3984 3.11598 51.3984 1.52401 49.8047C-0.0679609 48.211 -0.067961 45.6271 1.52401 44.0334L44.041 1.46978Z" fill="white"/>
</svg>
