<svg width="318" height="318" viewBox="0 0 318 318" fill="none" xmlns="http://www.w3.org/2000/svg">
<rect y="122.024" width="318" height="90.9764" rx="45.4882" fill="white"/>
<path d="M122.471 184.567V158.385H132.289C134.301 158.385 135.988 158.76 137.352 159.51C138.724 160.26 139.759 161.291 140.458 162.604C141.166 163.908 141.519 165.391 141.519 167.053C141.519 168.732 141.166 170.223 140.458 171.527C139.751 172.831 138.707 173.858 137.326 174.608C135.945 175.35 134.245 175.72 132.225 175.72H125.718V171.821H131.586C132.762 171.821 133.725 171.617 134.475 171.208C135.225 170.798 135.779 170.236 136.137 169.52C136.504 168.804 136.687 167.982 136.687 167.053C136.687 166.124 136.504 165.306 136.137 164.598C135.779 163.891 135.221 163.341 134.463 162.949C133.713 162.548 132.745 162.348 131.561 162.348H127.214V184.567H122.471ZM153.719 184.95C151.801 184.95 150.139 184.529 148.733 183.685C147.327 182.841 146.236 181.661 145.46 180.144C144.693 178.627 144.309 176.854 144.309 174.825C144.309 172.797 144.693 171.02 145.46 169.494C146.236 167.969 147.327 166.784 148.733 165.94C150.139 165.097 151.801 164.675 153.719 164.675C155.636 164.675 157.298 165.097 158.704 165.94C160.111 166.784 161.197 167.969 161.964 169.494C162.74 171.02 163.128 172.797 163.128 174.825C163.128 176.854 162.74 178.627 161.964 180.144C161.197 181.661 160.111 182.841 158.704 183.685C157.298 184.529 155.636 184.95 153.719 184.95ZM153.744 181.243C154.784 181.243 155.653 180.958 156.352 180.386C157.051 179.807 157.571 179.031 157.912 178.06C158.261 177.088 158.436 176.006 158.436 174.813C158.436 173.611 158.261 172.524 157.912 171.553C157.571 170.573 157.051 169.793 156.352 169.213C155.653 168.634 154.784 168.344 153.744 168.344C152.679 168.344 151.792 168.634 151.085 169.213C150.386 169.793 149.862 170.573 149.513 171.553C149.172 172.524 149.001 173.611 149.001 174.813C149.001 176.006 149.172 177.088 149.513 178.06C149.862 179.031 150.386 179.807 151.085 180.386C151.792 180.958 152.679 181.243 153.744 181.243ZM182.575 170.121L178.357 170.581C178.237 170.155 178.029 169.754 177.73 169.379C177.441 169.004 177.048 168.702 176.554 168.472C176.06 168.242 175.455 168.127 174.739 168.127C173.776 168.127 172.966 168.335 172.31 168.753C171.662 169.171 171.343 169.712 171.351 170.377C171.343 170.948 171.551 171.412 171.977 171.77C172.412 172.128 173.128 172.422 174.125 172.652L177.475 173.368C179.333 173.769 180.713 174.404 181.617 175.273C182.529 176.142 182.989 177.28 182.997 178.686C182.989 179.922 182.627 181.013 181.911 181.959C181.203 182.896 180.219 183.629 178.958 184.158C177.696 184.686 176.247 184.95 174.611 184.95C172.208 184.95 170.273 184.448 168.807 183.442C167.341 182.428 166.468 181.017 166.186 179.21L170.699 178.776C170.904 179.662 171.338 180.331 172.003 180.783C172.668 181.235 173.533 181.46 174.598 181.46C175.698 181.46 176.58 181.235 177.244 180.783C177.918 180.331 178.254 179.773 178.254 179.108C178.254 178.546 178.037 178.081 177.602 177.715C177.176 177.348 176.512 177.067 175.608 176.871L172.259 176.168C170.375 175.776 168.982 175.115 168.078 174.186C167.175 173.249 166.727 172.064 166.736 170.632C166.727 169.422 167.056 168.374 167.72 167.487C168.394 166.592 169.327 165.902 170.52 165.416C171.722 164.922 173.107 164.675 174.675 164.675C176.976 164.675 178.787 165.165 180.108 166.145C181.438 167.125 182.26 168.45 182.575 170.121ZM196.619 164.931V168.51H185.33V164.931H196.619ZM188.117 160.226H192.745V178.661C192.745 179.283 192.839 179.76 193.026 180.092C193.222 180.416 193.478 180.638 193.794 180.757C194.109 180.877 194.458 180.936 194.842 180.936C195.132 180.936 195.396 180.915 195.634 180.872C195.882 180.83 196.069 180.791 196.197 180.757L196.977 184.375C196.73 184.46 196.376 184.554 195.916 184.656C195.464 184.759 194.91 184.818 194.254 184.835C193.095 184.869 192.051 184.695 191.122 184.311C190.193 183.919 189.455 183.314 188.91 182.496C188.373 181.678 188.109 180.655 188.117 179.428V160.226Z" fill="black"/>
</svg>
